<svg width="44" height="30" viewBox="0 0 44 30" fill="none" xmlns="http://www.w3.org/2000/svg">
<path d="M24.2516 29.1899C24.8332 29.692 25.6177 29.9693 26.4325 29.9607C27.2473 29.9522 28.0258 29.6585 28.5967 29.1443L42.2968 16.8012C42.8675 16.2868 43.1839 15.594 43.1764 14.8753C43.1688 14.1565 42.8379 13.4706 42.2565 12.9683L28.3003 0.915567C27.7156 0.427884 26.9365 0.162816 26.1309 0.177453C25.3252 0.192088 24.5575 0.485257 23.993 0.993815C23.4285 1.50237 23.1125 2.18563 23.113 2.89643C23.1134 3.60723 23.4304 4.28869 23.9955 4.79405L32.3934 12.2776L3.20067 12.5841C2.38568 12.5926 1.60707 12.8864 1.03612 13.4008C0.465178 13.9152 0.148664 14.6081 0.156213 15.327C0.163761 16.0459 0.494753 16.732 1.07637 17.2343C1.65799 17.7365 2.4426 18.0139 3.25759 18.0054L32.4503 17.6989L24.2114 25.357C23.6406 25.8714 23.3243 26.5642 23.3318 27.2829C23.3393 28.0017 23.6702 28.6876 24.2516 29.1899Z" fill="#D27C2C"/>
</svg>
